<svg width="24" height="24" viewBox="0 0 24 24" fill="none" xmlns="http://www.w3.org/2000/svg">
<path d="M4.25 0H19.75C22.1 0 24 1.9 24 4.25V19.15C24 21.5 22.1 23.4 19.75 23.4H4.25C1.9 23.4 0 21.5 0 19.15V4.25C0 1.9 1.9 0 4.25 0Z" fill="#330000"/>
<path d="M11.6 14H7.88L7.12 16.35C7.1 16.44 7.02 16.5 6.93 16.49H5.05C4.94 16.49 4.91 16.43 4.94 16.31L8.16 7.04C8.19 6.94 8.22 6.83 8.26 6.71C8.3 6.5 8.32 6.28 8.32 6.06C8.31 6.01 8.35 5.96 8.4 5.95H10.99C11.07 5.95 11.11 5.98 11.12 6.03L14.77 16.33C14.8 16.44 14.77 16.49 14.67 16.49H12.58C12.51 16.5 12.44 16.45 12.42 16.38L11.6 14ZM8.46 11.97H11C10.94 11.76 10.86 11.51 10.77 11.25C10.68 10.98 10.59 10.69 10.5 10.39C10.4 10.08 10.31 9.78 10.21 9.47C10.11 9.16 10.02 8.87 9.94 8.58C9.86 8.3 9.79 8.04 9.72 7.8H9.7C9.61 8.23 9.5 8.66 9.36 9.09C9.21 9.57 9.06 10.07 8.9 10.57C8.76 11.08 8.61 11.55 8.46 11.97ZM17 7.7C16.67 7.71 16.35 7.58 16.11 7.35C15.88 7.1 15.76 6.77 15.77 6.43C15.76 6.09 15.89 5.77 16.13 5.54C16.37 5.31 16.69 5.19 17.02 5.19C17.41 5.19 17.71 5.31 17.93 5.54C18.15 5.78 18.27 6.1 18.26 6.43C18.27 6.77 18.15 7.1 17.91 7.35C17.68 7.59 17.34 7.72 17 7.7ZM15.88 16.38V8.68C15.88 8.58 15.92 8.54 16.01 8.54H17.99C18.08 8.54 18.12 8.59 18.12 8.68V16.38C18.12 16.49 18.08 16.54 17.99 16.54H16.03C15.93 16.54 15.88 16.48 15.88 16.38Z" fill="#FF9A00"/>
</svg>
