<svg width="24" height="24" viewBox="0 0 24 24" fill="none" xmlns="http://www.w3.org/2000/svg">
<path d="M20.0032 4.71655L18.4541 22.0696L11.4912 24L4.54739 22.0724L3 4.71655H20.0032Z" fill="#264DE4"/>
<path d="M17.1284 20.9647L18.4521 6.13574H11.502V22.5246L17.1284 20.9647Z" fill="#2965F1"/>
<path d="M6.54688 12.5728L6.73766 14.7013H11.5011V12.5728H6.54688Z" fill="#EBEBEB"/>
<path d="M11.5016 8.2644H11.4943H6.16406L6.35756 10.393H11.5016V8.2644Z" fill="#EBEBEB"/>
<path d="M11.5013 20.3156V18.1009L11.492 18.1034L9.12135 17.4633L8.96981 15.7656H7.81785H6.83301L7.13123 19.1079L11.4915 20.3183L11.5013 20.3156Z" fill="#EBEBEB"/>
<path d="M7.00195 0H9.58008V1.07812H8.08008V2.15625H9.58008V3.23438H7.00195V0Z" fill="black"/>
<path d="M10.0957 0H12.6738V0.9375H11.1738V1.125H12.6738V3.28125H10.0957V2.29688H11.5957V2.10938H10.0957V0Z" fill="black"/>
<path d="M13.1895 0H15.7676V0.9375H14.2676V1.125H15.7676V3.28125H13.1895V2.29688H14.6895V2.10938H13.1895V0Z" fill="black"/>
<path d="M14.1153 14.7014L13.8682 17.462L11.4941 18.1028V20.3174L15.8579 19.108L15.8899 18.7483L16.3901 13.1444L16.4421 12.5728L16.8264 8.2644H11.4941V10.393H14.4936L14.2999 12.5728H11.4941V14.7014H14.1153Z" fill="white"/>
</svg>
