<svg width="24" height="24" viewBox="0 0 24 24" fill="none" xmlns="http://www.w3.org/2000/svg">
<path d="M5.08105 0H6.15918V1.06875H7.15293V0H8.23105V3.23438H7.15293V2.15625H6.16855V3.23438H5.08105M9.65605 1.07812H8.70449V0H11.6904V1.07812H10.7342V3.23438H9.65605M12.1639 0H13.2936L13.9873 1.13906L14.6811 0H15.8107V3.23438H14.7326V1.63125L13.9779 2.79375L13.2232 1.63125V3.23438H12.1639M16.3451 0H17.4232V2.16563H18.9514V3.23438H16.3451" fill="black"/>
<path d="M5.04395 22.0781L3.49707 4.71558H20.5033L18.9564 22.0687L11.9861 24" fill="#E44D26"/>
<path d="M12 22.5234V6.14062H18.9516L17.625 20.9531" fill="#F16529"/>
<path d="M6.65625 8.26416H12V10.3923H8.99063L9.1875 12.572H12V14.6954H7.2375M7.33125 15.7642H9.46875L9.61875 17.4657L12 18.1032V20.3251L7.63125 19.1063" fill="#EBEBEB"/>
<path d="M17.3246 8.26416H11.9902V10.3923H17.1277M16.9355 12.572H11.9902V14.7001H14.6152L14.3668 17.4657L11.9902 18.1032V20.3157L16.3496 19.1063" fill="white"/>
</svg>
