<svg width="24" height="24" viewBox="0 0 24 24" fill="none" xmlns="http://www.w3.org/2000/svg">
<path d="M4.25 0H19.75C22.1 0 24 1.9 24 4.25V19.15C24 21.5 22.1 23.4 19.75 23.4H4.25C1.9 23.4 0 21.5 0 19.15V4.25C0 1.9 1.9 0 4.25 0Z" fill="#49021F"/>
<path d="M8.72 6.12V16.42C8.72 16.53 8.67 16.58 8.58 16.58H6.62C6.53 16.58 6.49 16.53 6.49 16.42V6.12C6.49 6.03 6.54 5.99 6.63 5.99H8.58C8.64 5.98 8.7 6.02 8.71 6.09C8.72 6.1 8.72 6.11 8.72 6.12Z" fill="#FF3366"/>
<path d="M14.5 16.7C13.76 16.71 13.02 16.56 12.35 16.25C11.72 15.96 11.2 15.48 10.84 14.89C10.47 14.28 10.29 13.52 10.29 12.61C10.28 11.87 10.47 11.14 10.84 10.5C11.22 9.85 11.77 9.31 12.43 8.95C13.13 8.56 13.97 8.37 14.96 8.37C15.01 8.37 15.08 8.37 15.17 8.38C15.26 8.39 15.36 8.39 15.48 8.4V5.24C15.48 5.17 15.51 5.13 15.58 5.13H17.61C17.66 5.12 17.7 5.16 17.71 5.2V14.74C17.71 14.92 17.72 15.12 17.73 15.34C17.75 15.55 17.76 15.75 17.77 15.92C17.77 15.99 17.74 16.05 17.67 16.08C17.15 16.3 16.6 16.46 16.04 16.56C15.54 16.65 15.02 16.7 14.5 16.7ZM15.48 14.7V10.3C15.39 10.28 15.3 10.26 15.21 10.25C15.1 10.24 14.99 10.23 14.88 10.23C14.49 10.23 14.1 10.31 13.75 10.49C13.41 10.66 13.12 10.91 12.9 11.23C12.68 11.55 12.57 11.98 12.57 12.5C12.56 12.85 12.62 13.2 12.74 13.53C12.84 13.8 12.99 14.04 13.19 14.24C13.38 14.42 13.61 14.56 13.87 14.64C14.14 14.73 14.42 14.77 14.7 14.77C14.85 14.77 14.99 14.76 15.12 14.75C15.25 14.76 15.37 14.74 15.48 14.7Z" fill="#FF3366"/>
</svg>
