<svg width="24" height="24" viewBox="0 0 24 24" fill="none" xmlns="http://www.w3.org/2000/svg">
<path d="M12.9903 10.2839C12.1133 10.6819 11.4663 10.5769 10.6783 11.0399C9.89128 11.5009 9.49428 12.1429 9.49428 12.1429L6.28928 20.5049C5.94228 21.4489 6.45628 22.5549 7.41028 22.9249C7.86946 23.0987 8.37847 23.0854 8.82798 22.8879C9.27748 22.6905 9.63161 22.3246 9.81428 21.8689L14.8273 8.7749C14.8273 8.7749 13.8663 9.8839 12.9903 10.2839ZM8.90128 16.9489V16.9579C8.86519 16.9744 8.82616 16.9834 8.78651 16.9845C8.74686 16.9856 8.70739 16.9787 8.67045 16.9643C8.63351 16.9498 8.59985 16.9281 8.57148 16.9004C8.5431 16.8726 8.52059 16.8395 8.50528 16.8029C8.48858 16.7669 8.4793 16.7279 8.47799 16.6882C8.47668 16.6485 8.48336 16.609 8.49763 16.572C8.5119 16.5349 8.53348 16.5011 8.56108 16.4726C8.58868 16.4441 8.62173 16.4214 8.65828 16.4059C8.81228 16.3359 8.99228 16.4059 9.05528 16.5589C9.13028 16.7089 9.06428 16.8729 8.90128 16.9489ZM10.0733 19.1289C9.96928 19.1719 9.84928 19.1289 9.80828 19.0249C9.78772 18.9758 9.7872 18.9205 9.80682 18.871C9.82644 18.8215 9.86465 18.7816 9.91328 18.7599C10.0173 18.7189 10.1373 18.7599 10.1783 18.8649C10.2193 18.9689 10.1773 19.0869 10.0733 19.1289ZM9.93628 16.1459C9.79721 16.2073 9.63961 16.2119 9.49721 16.1587C9.35481 16.1054 9.2389 15.9985 9.17428 15.8609L9.18728 15.8619C9.12739 15.7231 9.12375 15.5665 9.1771 15.4251C9.23046 15.2837 9.33665 15.1685 9.47328 15.1039C9.61046 15.0441 9.7656 15.0405 9.90543 15.0938C10.0453 15.147 10.1587 15.253 10.2213 15.3889C10.2804 15.5275 10.2838 15.6836 10.2307 15.8246C10.1776 15.9656 10.0721 16.0807 9.93628 16.1459ZM10.4773 12.5959C10.3733 12.6379 10.2523 12.5959 10.2133 12.4919C10.1922 12.4428 10.1912 12.3873 10.2105 12.3375C10.2297 12.2876 10.2677 12.2472 10.3163 12.2249C10.4213 12.1829 10.5413 12.2249 10.5813 12.3299C10.6243 12.4339 10.5813 12.5559 10.4773 12.5959ZM11.8493 14.1529C11.8131 14.1698 11.7739 14.1793 11.734 14.1806C11.6941 14.1819 11.6543 14.1751 11.6171 14.1607C11.5799 14.1462 11.546 14.1243 11.5175 14.0963C11.489 14.0683 11.4665 14.0348 11.4513 13.9979C11.4342 13.9619 11.4246 13.9228 11.4231 13.8829C11.4217 13.8431 11.4284 13.8034 11.4428 13.7662C11.4572 13.7291 11.479 13.6952 11.507 13.6668C11.5349 13.6384 11.5684 13.616 11.6053 13.6009V13.6039C11.6411 13.5868 11.6799 13.5772 11.7195 13.5755C11.7591 13.5739 11.7987 13.5802 11.8358 13.5942C11.8729 13.6082 11.9067 13.6296 11.9353 13.6571C11.964 13.6845 11.9867 13.7174 12.0023 13.7539C12.0187 13.7901 12.0278 13.8292 12.029 13.869C12.0302 13.9087 12.0235 13.9483 12.0093 13.9854C11.995 14.0225 11.9735 14.0565 11.9461 14.0852C11.9186 14.114 11.8857 14.137 11.8493 14.1529Z" fill="black"/>
<path opacity="0.1" d="M12.7583 0.488921C12.7463 0.534138 12.7463 0.581703 12.7583 0.62692C12.7583 0.62692 12.9073 1.60292 12.7353 2.03992L5.66027 20.4489C5.41644 21.0992 5.44024 21.8196 5.72644 22.4523C6.01265 23.0851 6.53793 23.5786 7.18727 23.8249C7.83632 24.073 8.55699 24.0555 9.19319 23.776C9.82939 23.4966 10.3299 22.9778 10.5863 22.3319L17.6603 3.92192C17.7983 3.56592 18.5903 2.86492 18.5903 2.86492C18.6253 2.82992 18.6593 2.79592 18.6823 2.76192V2.75092C18.6823 2.73892 18.6943 2.73892 18.6943 2.72792C18.8783 2.25692 17.6953 1.36092 16.0643 0.729921C14.4333 0.0979205 12.9523 -0.0280795 12.7683 0.453921C12.7693 0.453921 12.7583 0.465921 12.7583 0.488921Z" fill="black"/>
<path d="M12.5512 0.328032C12.5392 0.373249 12.5392 0.420814 12.5512 0.466032C12.5512 0.466032 12.7002 1.44203 12.5282 1.87903L5.4542 20.289C4.9492 21.644 5.6262 23.149 6.9822 23.665C8.3382 24.181 9.8422 23.516 10.3812 22.172L17.4552 3.76203C17.5932 3.40603 18.3852 2.70503 18.3852 2.70503C18.4202 2.67003 18.4542 2.63603 18.4772 2.60203V2.59003C18.4772 2.57803 18.4892 2.57803 18.4892 2.56703C18.6732 2.09603 17.4902 1.20003 15.8592 0.569032C14.2282 -0.0629682 12.7472 -0.188968 12.5632 0.293032C12.5622 0.305032 12.5622 0.316032 12.5512 0.328032Z" fill="url(#paint0_linear_2561_37466)"/>
<path d="M14.7793 8.65405L9.66833 21.9301C9.48286 22.3939 9.12221 22.766 8.66443 22.9659C8.20665 23.1657 7.68857 23.1773 7.22233 22.9981C6.24633 22.6191 5.72933 21.5051 6.08533 20.5521L9.34633 12.0651C9.34633 12.0651 9.74833 11.4101 10.5523 10.9401C11.3563 10.4691 12.0103 10.5721 12.8953 10.1821C13.7913 9.79105 14.7793 8.65405 14.7793 8.65405Z" fill="url(#paint1_linear_2561_37466)"/>
<path d="M17.2569 2.1829C17.3589 1.9169 16.6259 1.3869 15.6199 0.9989C14.6139 0.6109 13.7169 0.5109 13.6149 0.7769C13.5129 1.0429 14.2459 1.5729 15.2519 1.9609C16.2579 2.3499 17.1549 2.4489 17.2569 2.1829Z" fill="#333333"/>
<path opacity="0.3" d="M12.5026 0.464111C12.5026 0.464111 12.6506 1.43711 12.4796 1.87311L5.45157 20.2311C5.20896 20.8791 5.2324 21.5967 5.51677 22.2274C5.80114 22.8582 6.32337 23.3509 6.96957 23.5981C7.19757 23.6901 7.43757 23.7471 7.67657 23.7581C7.22638 23.4142 6.89816 22.9351 6.73998 22.3912C6.5818 21.8472 6.60198 21.2668 6.79757 20.7351L13.6896 2.74311C13.6896 2.74311 12.7426 1.86211 12.5026 0.464111Z" fill="white"/>
<path d="M10.2441 12.5121C10.3573 12.5121 10.4491 12.4199 10.4491 12.3061C10.4491 12.1923 10.3573 12.1001 10.2441 12.1001C10.1309 12.1001 10.0391 12.1923 10.0391 12.3061C10.0391 12.4199 10.1309 12.5121 10.2441 12.5121Z" fill="white"/>
<path d="M11.5795 14.0921C11.7496 14.0921 11.8875 13.9538 11.8875 13.7831C11.8875 13.6125 11.7496 13.4741 11.5795 13.4741C11.4094 13.4741 11.2715 13.6125 11.2715 13.7831C11.2715 13.9538 11.4094 14.0921 11.5795 14.0921Z" fill="white"/>
<path d="M9.53708 16.1309C9.85851 16.1309 10.1191 15.8694 10.1191 15.5469C10.1191 15.2244 9.85851 14.9629 9.53708 14.9629C9.21565 14.9629 8.95508 15.2244 8.95508 15.5469C8.95508 15.8694 9.21565 16.1309 9.53708 16.1309Z" fill="white"/>
<path d="M8.60098 16.932C8.77109 16.932 8.90897 16.7936 8.90897 16.623C8.90897 16.4523 8.77109 16.314 8.60098 16.314C8.43088 16.314 8.29297 16.4523 8.29297 16.623C8.29297 16.7936 8.43088 16.932 8.60098 16.932Z" fill="white"/>
<path d="M9.8222 19.12C9.93542 19.12 10.0272 19.0278 10.0272 18.914C10.0272 18.8002 9.93542 18.708 9.8222 18.708C9.70899 18.708 9.61719 18.8002 9.61719 18.914C9.61719 19.0278 9.70899 19.12 9.8222 19.12Z" fill="white"/>
<defs>
<linearGradient id="paint0_linear_2561_37466" x1="8.63111" y1="10.9405" x2="14.3948" y2="11.5798" gradientUnits="userSpaceOnUse">
<stop stop-color="#919191"/>
<stop offset="1" stop-color="white"/>
</linearGradient>
<linearGradient id="paint1_linear_2561_37466" x1="8.48715" y1="14.8323" x2="11.9531" y2="15.3009" gradientUnits="userSpaceOnUse">
<stop stop-color="#990000"/>
<stop offset="1" stop-color="#E80000"/>
</linearGradient>
</defs>
</svg>
