<svg width="24" height="24" viewBox="0 0 24 24" fill="none" xmlns="http://www.w3.org/2000/svg">
<path d="M4.25 0H19.75C22.1 0 24 1.9 24 4.25V19.15C24 21.5 22.1 23.4 19.75 23.4H4.25C1.9 23.4 0 21.5 0 19.15V4.25C0 1.9 1.9 0 4.25 0Z" fill="#001E36"/>
<path d="M5.4 16.41V6.12C5.4 6.05 5.43 6.01 5.5 6.01C5.67 6.01 5.83 6.01 6.06 6C6.3 5.99 6.55 5.99 6.82 5.98C7.09 5.97 7.38 5.97 7.69 5.96C8 5.95 8.3 5.95 8.6 5.95C9.42 5.95 10.1 6.05 10.66 6.26C11.16 6.43 11.62 6.71 12 7.08C12.32 7.4 12.57 7.79 12.73 8.22C12.88 8.64 12.96 9.07 12.96 9.52C12.96 10.38 12.76 11.09 12.36 11.65C11.96 12.21 11.4 12.63 10.75 12.87C10.07 13.12 9.32 13.21 8.5 13.21C8.26 13.21 8.1 13.21 8 13.2C7.9 13.19 7.76 13.19 7.57 13.19V16.4C7.58 16.47 7.53 16.53 7.46 16.54C7.45 16.54 7.44 16.54 7.42 16.54H5.52C5.44 16.54 5.4 16.5 5.4 16.41ZM7.58 7.94V11.3C7.72 11.31 7.85 11.32 7.97 11.32H8.5C8.89 11.32 9.28 11.26 9.65 11.14C9.97 11.05 10.25 10.86 10.47 10.61C10.68 10.36 10.78 10.02 10.78 9.58C10.79 9.27 10.71 8.96 10.55 8.69C10.38 8.43 10.14 8.23 9.85 8.12C9.48 7.97 9.08 7.91 8.67 7.92C8.41 7.92 8.18 7.92 7.99 7.93C7.79 7.92 7.65 7.93 7.58 7.94Z" fill="#31A8FF"/>
<path d="M19.2 10.69C18.9 10.53 18.58 10.42 18.24 10.35C17.87 10.27 17.5 10.22 17.12 10.22C16.92 10.21 16.71 10.24 16.52 10.29C16.39 10.32 16.28 10.39 16.21 10.49C16.16 10.57 16.13 10.67 16.13 10.76C16.13 10.85 16.17 10.94 16.23 11.02C16.32 11.13 16.44 11.22 16.57 11.29C16.8 11.41 17.04 11.52 17.28 11.62C17.82 11.8 18.34 12.05 18.82 12.35C19.15 12.56 19.42 12.84 19.61 13.18C19.77 13.5 19.85 13.85 19.84 14.21C19.85 14.68 19.71 15.15 19.45 15.54C19.17 15.94 18.78 16.25 18.33 16.43C17.84 16.64 17.24 16.75 16.52 16.75C16.06 16.75 15.61 16.71 15.16 16.62C14.81 16.56 14.46 16.45 14.14 16.3C14.07 16.26 14.02 16.19 14.03 16.11V14.37C14.03 14.34 14.04 14.3 14.07 14.28C14.1 14.26 14.13 14.27 14.16 14.29C14.55 14.52 14.96 14.68 15.4 14.78C15.78 14.88 16.18 14.93 16.58 14.93C16.96 14.93 17.23 14.88 17.41 14.79C17.57 14.72 17.68 14.55 17.68 14.37C17.68 14.23 17.6 14.1 17.44 13.97C17.28 13.84 16.95 13.69 16.46 13.5C15.95 13.32 15.48 13.08 15.04 12.78C14.73 12.56 14.47 12.27 14.28 11.93C14.12 11.61 14.04 11.26 14.05 10.91C14.05 10.48 14.17 10.07 14.39 9.7C14.64 9.3 15.01 8.98 15.44 8.78C15.91 8.54 16.5 8.43 17.21 8.43C17.62 8.43 18.04 8.46 18.45 8.52C18.75 8.56 19.04 8.64 19.31 8.75C19.35 8.76 19.39 8.8 19.41 8.84C19.42 8.88 19.43 8.92 19.43 8.96V10.59C19.43 10.63 19.41 10.67 19.38 10.69C19.29 10.71 19.24 10.71 19.2 10.69Z" fill="#31A8FF"/>
</svg>
