<svg width="24" height="24" viewBox="0 0 24 24" fill="none" xmlns="http://www.w3.org/2000/svg">
<path d="M12 14.342C13.1814 14.342 14.1391 13.3843 14.1391 12.2029C14.1391 11.0215 13.1814 10.0638 12 10.0638C10.8186 10.0638 9.86087 11.0215 9.86087 12.2029C9.86087 13.3843 10.8186 14.342 12 14.342Z" fill="#61DAFB"/>
<path fill-rule="evenodd" clip-rule="evenodd" d="M1.77336 10.8843C1.25703 11.3504 1.04348 11.7969 1.04348 12.2029C1.04348 12.609 1.25703 13.0554 1.77336 13.5215C2.28964 13.9876 3.066 14.4312 4.06975 14.8145C6.07366 15.5796 8.87728 16.0638 12 16.0638C15.1227 16.0638 17.9263 15.5796 19.9303 14.8145C20.934 14.4312 21.7104 13.9876 22.2266 13.5215C22.743 13.0554 22.9565 12.609 22.9565 12.2029C22.9565 11.7969 22.743 11.3504 22.2266 10.8843C21.7104 10.4183 20.934 9.97463 19.9303 9.59138C17.9263 8.82625 15.1227 8.34207 12 8.34207C8.87728 8.34207 6.07366 8.82625 4.06975 9.59138C3.066 9.97463 2.28964 10.4183 1.77336 10.8843ZM3.69754 8.61655C5.84794 7.79549 8.78345 7.2986 12 7.2986C15.2166 7.2986 18.1521 7.79549 20.3025 8.61655C21.3759 9.02639 22.2805 9.52714 22.9258 10.1097C23.5712 10.6923 24 11.3987 24 12.2029C24 13.0071 23.5712 13.7136 22.9258 14.2961C22.2805 14.8787 21.3759 15.3795 20.3025 15.7893C18.1521 16.6104 15.2166 17.1072 12 17.1072C8.78345 17.1072 5.84794 16.6104 3.69754 15.7893C2.62413 15.3795 1.71954 14.8787 1.07415 14.2961C0.42882 13.7136 0 13.0071 0 12.2029C0 11.3987 0.42882 10.6923 1.07415 10.1097C1.71954 9.52714 2.62413 9.02639 3.69754 8.61655Z" fill="#61DAFB"/>
<path fill-rule="evenodd" clip-rule="evenodd" d="M8.02865 2.68713C7.36683 2.47302 6.87339 2.51132 6.52174 2.71434C6.17009 2.91736 5.89021 3.32555 5.74472 4.00575C5.59924 4.68588 5.60323 5.58003 5.7732 6.64093C6.11254 8.75892 7.09503 11.429 8.65639 14.1333C10.2177 16.8377 12.0389 19.0236 13.7035 20.3765C14.5372 21.0541 15.3096 21.5046 15.9714 21.7187C16.6332 21.9328 17.1266 21.8945 17.4783 21.6915C17.8299 21.4885 18.1098 21.0803 18.2553 20.4001C18.4008 19.72 18.3968 18.8258 18.2268 17.7649C17.8875 15.6469 16.905 12.9768 15.3436 10.2725C13.7823 7.56816 11.9611 5.38225 10.2965 4.02938C9.46277 3.35174 8.6904 2.90121 8.02865 2.68713ZM10.9547 3.21963C12.7409 4.67139 14.639 6.96516 16.2473 9.75076C17.8556 12.5364 18.893 15.327 19.2571 17.5998C19.4389 18.7344 19.4575 19.7681 19.2757 20.6183C19.0938 21.4685 18.6964 22.1931 18 22.5952C17.3036 22.9973 16.4773 22.9791 15.6502 22.7115C14.8229 22.4439 13.937 21.9109 13.0453 21.1862C11.2591 19.7345 9.36099 17.4407 7.75271 14.6551C6.14443 11.8695 5.107 9.07882 4.74286 6.806C4.5611 5.67148 4.54246 4.63771 4.72432 3.78749C4.90616 2.93735 5.30356 2.21275 6 1.81067C6.69644 1.40858 7.52266 1.42672 8.34983 1.69431C9.17708 1.96193 10.063 2.49496 10.9547 3.21963Z" fill="#61DAFB"/>
<path fill-rule="evenodd" clip-rule="evenodd" d="M18.2553 4.00575C18.1098 3.32555 17.8299 2.91736 17.4783 2.71434C17.1266 2.51132 16.6332 2.47302 15.9714 2.68713C15.3096 2.90121 14.5372 3.35174 13.7035 4.02938C12.0389 5.38225 10.2177 7.56816 8.65639 10.2725C7.09503 12.9768 6.11254 15.6469 5.7732 17.7649C5.60323 18.8258 5.59924 19.72 5.74472 20.4001C5.89021 21.0803 6.17009 21.4885 6.52174 21.6915C6.87339 21.8945 7.36683 21.9328 8.02865 21.7187C8.6904 21.5046 9.46277 21.0541 10.2965 20.3765C11.9611 19.0236 13.7823 16.8377 15.3436 14.1333C16.905 11.429 17.8875 8.75892 18.2268 6.64093C18.3968 5.58003 18.4008 4.68588 18.2553 4.00575ZM19.2571 6.806C18.893 9.07882 17.8556 11.8695 16.2473 14.6551C14.639 17.4407 12.7409 19.7345 10.9547 21.1862C10.063 21.9109 9.17707 22.4439 8.34983 22.7115C7.52266 22.9791 6.69644 22.9973 6 22.5952C5.30356 22.1931 4.90616 21.4685 4.72432 20.6183C4.54246 19.7681 4.5611 18.7344 4.74286 17.5998C5.107 15.327 6.14443 12.5364 7.75271 9.75076C9.36099 6.96516 11.2591 4.67139 13.0453 3.21963C13.937 2.49496 14.8229 1.96193 15.6502 1.69431C16.4773 1.42672 17.3036 1.40858 18 1.81067C18.6964 2.21275 19.0938 2.93735 19.2757 3.78749C19.4575 4.63771 19.4389 5.67148 19.2571 6.806Z" fill="#61DAFB"/>
</svg>
