<svg width="24" height="24" viewBox="0 0 24 24" fill="none" xmlns="http://www.w3.org/2000/svg">
<path d="M20.653 13.3395C19.8162 13.3439 19.0889 13.5454 18.4799 13.8433C18.2565 13.4008 18.033 13.0065 17.9936 12.7174C17.9498 12.38 17.8972 12.1741 17.9498 11.771C18.0024 11.368 18.2389 10.794 18.2346 10.7502C18.2302 10.7064 18.182 10.5005 17.7001 10.4961C17.2181 10.4917 16.8019 10.5881 16.7537 10.7152C16.7055 10.8422 16.6135 11.1314 16.5522 11.4293C16.469 11.8674 15.5883 13.4315 15.0845 14.2508C14.9224 13.9309 14.7822 13.6505 14.7515 13.4271C14.7077 13.0898 14.6552 12.8838 14.7077 12.4808C14.7603 12.0777 14.9969 11.5038 14.9925 11.46C14.9881 11.4161 14.9399 11.2102 14.458 11.2059C13.9761 11.2015 13.5599 11.2979 13.5117 11.4249C13.4635 11.552 13.4109 11.8499 13.3101 12.139C13.2094 12.4282 12.0396 15.0394 11.7329 15.7141C11.5752 16.0602 11.4394 16.3362 11.343 16.5246C11.343 16.5246 11.3386 16.5377 11.3255 16.5596C11.2422 16.7217 11.194 16.8094 11.194 16.8094C11.194 16.8094 11.194 16.8094 11.194 16.8137C11.1283 16.932 11.0582 17.0416 11.0232 17.0416C10.9969 17.0416 10.9487 16.7261 11.0319 16.2968C11.2072 15.3899 11.6234 13.9791 11.619 13.9309C11.619 13.9046 11.6979 13.6593 11.3474 13.5322C11.0056 13.4052 10.883 13.6155 10.8523 13.6155C10.8216 13.6155 10.7997 13.69 10.7997 13.69C10.7997 13.69 11.1809 12.104 10.0725 12.104C9.38024 12.104 8.42514 12.8619 7.95198 13.5454C7.65406 13.7075 7.01879 14.0536 6.33971 14.426C6.08122 14.5706 5.81397 14.7152 5.56425 14.851C5.54672 14.8335 5.5292 14.8115 5.51167 14.794C4.17104 13.3614 1.6913 12.3493 1.79645 10.426C1.83588 9.72502 2.07684 7.88493 6.55877 5.65054C10.2477 3.83236 13.1831 4.33619 13.6913 5.45339C14.4186 7.04813 12.1185 10.0098 8.30685 10.4391C6.85231 10.6013 6.08999 10.0405 5.89722 9.83017C5.69568 9.61111 5.66501 9.59796 5.59053 9.64178C5.46786 9.70749 5.54672 9.90465 5.59053 10.0186C5.70444 10.3165 6.17323 10.8422 6.96622 11.1007C7.6672 11.3285 9.37148 11.4556 11.435 10.6582C13.7439 9.76445 15.5489 7.28033 15.0188 5.19928C14.4887 3.08756 10.9837 2.39095 7.6672 3.56949C5.69568 4.27047 3.55767 5.37452 2.01989 6.81155C0.192943 8.5202 -0.0962134 10.0054 0.022078 10.6275C0.447051 12.8356 3.49196 14.2727 4.70992 15.3373C4.64858 15.3723 4.59163 15.403 4.54344 15.4293C3.93445 15.7316 1.61244 16.9452 1.03413 18.2289C0.376952 19.6834 1.13927 20.7261 1.64311 20.8663C3.20718 21.3 4.81507 20.5202 5.67816 19.2321C6.54125 17.9441 6.4361 16.2705 6.03741 15.5038C6.03303 15.495 6.02865 15.4862 6.01989 15.4775C6.17761 15.3855 6.33971 15.2891 6.49743 15.1971C6.8085 15.0131 7.11518 14.8422 7.37805 14.702C7.22909 15.1095 7.11956 15.5958 7.06699 16.2968C7.00127 17.1204 7.33862 18.1894 7.78111 18.61C7.97827 18.794 8.21047 18.7984 8.35943 18.7984C8.8764 18.7984 9.10861 18.369 9.36709 17.8608C9.68254 17.2387 9.96731 16.5158 9.96731 16.5158C9.96731 16.5158 9.61244 18.4698 10.5763 18.4698C10.9268 18.4698 11.2817 18.0142 11.4394 17.782C11.4394 17.7864 11.4394 17.7864 11.4394 17.7864C11.4394 17.7864 11.4481 17.7732 11.4657 17.7425C11.5007 17.6856 11.5226 17.6505 11.5226 17.6505C11.5226 17.6505 11.5226 17.6462 11.5226 17.6418C11.6628 17.3964 11.9783 16.84 12.4471 15.9156C13.0517 14.7239 13.6343 13.2343 13.6343 13.2343C13.6343 13.2343 13.6869 13.598 13.8665 14.2026C13.9717 14.5574 14.1908 14.9474 14.366 15.3241C14.2258 15.5213 14.1382 15.6308 14.1382 15.6308C14.1382 15.6308 14.1382 15.6308 14.1426 15.6352C14.0286 15.7842 13.906 15.9463 13.7702 16.104C13.2926 16.6735 12.7231 17.3263 12.6442 17.5147C12.5522 17.7382 12.5741 17.9003 12.7494 18.0317C12.8764 18.1281 13.1042 18.1412 13.3364 18.1281C13.7658 18.0974 14.0681 17.9923 14.217 17.9266C14.4492 17.8433 14.7209 17.7163 14.975 17.5279C15.4438 17.1818 15.7285 16.6867 15.7023 16.0339C15.6891 15.6746 15.5708 15.3154 15.4262 14.978C15.4701 14.9167 15.5095 14.8554 15.5533 14.794C16.2937 13.7119 16.8676 12.5246 16.8676 12.5246C16.8676 12.5246 16.9202 12.8882 17.0998 13.4928C17.1875 13.7995 17.3671 14.1325 17.5248 14.4567C16.8282 15.0218 16.3989 15.679 16.2455 16.1084C15.9695 16.9057 16.1842 17.265 16.5916 17.3482C16.7756 17.3877 17.0385 17.3 17.2313 17.2168C17.4766 17.1379 17.7658 17.0021 18.0418 16.8006C18.5106 16.4545 18.9618 15.9726 18.9356 15.3198C18.9224 15.0218 18.8435 14.7283 18.734 14.4435C19.3255 14.1982 20.0878 14.0624 21.0604 14.1763C23.1458 14.4216 23.5577 15.7228 23.4788 16.2705C23.4 16.8181 22.9618 17.116 22.8173 17.208C22.6727 17.3 22.6245 17.3307 22.6376 17.3964C22.6552 17.4928 22.7253 17.4884 22.8479 17.4709C23.0188 17.4402 23.9432 17.0284 23.9827 16.0207C24.0484 14.7327 22.8216 13.3263 20.653 13.3395ZM4.56534 18.7634C3.87312 19.5169 2.90926 19.8017 2.49305 19.5607C2.04617 19.3022 2.22142 18.1894 3.07137 17.3921C3.58834 16.9057 4.25428 16.4545 4.69678 16.1785C4.79754 16.1171 4.9465 16.0295 5.12613 15.92C5.1568 15.9025 5.17432 15.8937 5.17432 15.8937C5.20937 15.8718 5.24442 15.8499 5.27947 15.828C5.59053 16.9671 5.29261 17.9704 4.56534 18.7634ZM9.60368 15.3373C9.36271 15.9244 8.85888 17.4271 8.5522 17.3439C8.28933 17.2738 8.12723 16.1347 8.49962 15.0087C8.68801 14.4435 9.0867 13.7688 9.3189 13.506C9.69568 13.0854 10.1119 12.9452 10.2127 13.116C10.3397 13.3395 9.75264 14.9693 9.60368 15.3373ZM13.7614 17.3263C13.6606 17.3789 13.5642 17.414 13.5204 17.3877C13.4898 17.3701 13.5642 17.3 13.5642 17.3C13.5642 17.3 14.0856 16.7393 14.2915 16.4851C14.4098 16.3362 14.55 16.1609 14.699 15.9638C14.699 15.9813 14.699 16.0032 14.699 16.0207C14.699 16.6911 14.0506 17.1423 13.7614 17.3263ZM16.9684 16.5947C16.8939 16.5421 16.9071 16.3669 17.1568 15.8192C17.2532 15.6045 17.481 15.2453 17.8709 14.8992C17.9147 15.0394 17.9454 15.1752 17.941 15.3022C17.9366 16.1478 17.332 16.4632 16.9684 16.5947Z" fill="#CD6799"/>
</svg>
