<svg width="24" height="24" viewBox="0 0 24 24" fill="none" xmlns="http://www.w3.org/2000/svg">
<path d="M5.22581 1.71361L11.9758 1L18.7258 1.71361L23.9516 8.7288L11.9758 22.6745L0 8.7288L5.22581 1.71361Z" fill="#FDB300"/>
<path d="M4.8508 8.72876L11.9758 22.6745L0 8.72876H4.8508Z" fill="#EA6C00"/>
<path d="M19.1004 8.72876L11.9754 22.6745L23.9512 8.72876H19.1004Z" fill="#EA6C00"/>
<path d="M4.85059 8.72876H19.1006L11.9756 22.6745L4.85059 8.72876Z" fill="#FDAD00"/>
<path d="M11.9756 1L5.22557 1.7136L4.85059 8.72879L11.9756 1Z" fill="#FDD231"/>
<path d="M11.9756 1L18.7256 1.7136L19.1006 8.72879L11.9756 1Z" fill="#FDD231"/>
<path d="M23.9512 8.72881L18.7253 1.71362L19.1004 8.72881H23.9512Z" fill="#FDAD00"/>
<path d="M0 8.72881L5.22579 1.71362L4.8508 8.72881H0Z" fill="#FDAD00"/>
<path d="M11.9756 1L4.85059 8.72879H19.1006L11.9756 1Z" fill="#FEEEB7"/>
</svg>
