<svg width="24" height="24" viewBox="0 0 24 24" fill="none" xmlns="http://www.w3.org/2000/svg">
  <path d="M15.2748 6.25024C14.8226 5.79808 14.0894 5.79808 13.6375 6.25024L6.26907 13.6189C5.36427 14.523 3.89836 14.523 2.99429 13.6189C2.08925 12.7146 2.08925 11.2485 2.99429 10.3437L10.2209 3.11706C9.31657 2.2125 7.85018 2.2125 6.94587 3.11706L1.35629 8.70639C-0.452098 10.5153 -0.452098 13.4473 1.35629 15.2564C3.16516 17.0653 6.09723 17.0653 7.9061 15.2564L15.2748 7.88775C15.7267 7.43559 15.7267 6.7024 15.2748 6.25024ZM17.7309 3.79433C15.9221 1.98522 12.99 1.98522 11.1811 3.79433L3.81268 11.1625C3.36076 11.6145 3.36076 12.3481 3.81268 12.8C4.26484 13.2522 4.99779 13.2522 5.44995 12.8L12.8189 5.43185C13.7232 4.52729 15.1891 4.52729 16.0932 5.43185C16.5458 5.88376 17.2788 5.88376 17.7309 5.43185C18.1831 4.97921 18.1831 4.24649 17.7309 3.79433ZM20.1873 11.1625C19.7352 10.7109 19.0017 10.7109 18.5496 11.1625L11.1811 18.531C10.2768 19.4353 8.81042 19.4353 7.9061 18.531C7.45418 18.0791 6.72123 18.0791 6.26907 18.531C5.81619 18.9834 5.81619 19.7166 6.26907 20.1683C8.07722 21.9771 11.01 21.9771 12.8189 20.1683L20.1873 12.8C20.6392 12.3481 20.6392 11.6145 20.1873 11.1625ZM22.6437 8.70663C20.8348 6.898 17.9023 6.898 16.0939 8.70663L8.72498 16.0753C8.27282 16.527 8.27282 17.2607 8.72498 17.7126C9.17737 18.165 9.91057 18.165 10.3625 17.7126L17.7309 10.3441C18.635 9.43959 20.1016 9.43959 21.0057 10.3441C21.91 11.2485 21.91 12.7146 21.0057 13.6189L13.7791 20.8458C14.6834 21.7498 16.1491 21.7498 17.0541 20.8458L22.6437 15.2564C24.4521 13.4473 24.4521 10.5153 22.6437 8.70663Z" fill="#7F848E"/>
</svg>
