<svg xmlns="http://www.w3.org/2000/svg" version="1.1" xmlns:xlink="http://www.w3.org/1999/xlink" width="1000" height="1000"><style>
    #light-icon {
      display: inline;
    }
    #dark-icon {
      display: none;
    }

    @media (prefers-color-scheme: dark) {
      #light-icon {
        display: none;
      }
      #dark-icon {
        display: inline;
      }
    }
  </style><g id="light-icon"><svg xmlns="http://www.w3.org/2000/svg" version="1.1" xmlns:xlink="http://www.w3.org/1999/xlink" width="1000" height="1000"><g><g transform="matrix(0.5952380952380952,0,0,0.5952380952380952,0,0)"><svg xmlns="http://www.w3.org/2000/svg" version="1.1" xmlns:xlink="http://www.w3.org/1999/xlink" width="1680" height="1680"><svg width="1680" height="1680" viewBox="0 0 1680 1680" fill="none" xmlns="http://www.w3.org/2000/svg">
<rect x="40" y="40" width="1600" height="1600" stroke="#3C6EF4" stroke-width="80"></rect>
<path d="M840 1640C1281.83 1640 1640 1281.83 1640 840C1640 398.172 1281.83 40 840 40" stroke="#3C6EF4" stroke-width="80"></path>
<path d="M1620 1640L436 40" stroke="#3C6EF4" stroke-width="80"></path>
</svg></svg></g></g></svg></g><g id="dark-icon"><svg xmlns="http://www.w3.org/2000/svg" version="1.1" xmlns:xlink="http://www.w3.org/1999/xlink" width="1000" height="1000"><g><g transform="matrix(0.5952380952380952,0,0,0.5952380952380952,0,0)"><svg xmlns="http://www.w3.org/2000/svg" version="1.1" xmlns:xlink="http://www.w3.org/1999/xlink" width="1680" height="1680"><svg width="1680" height="1680" viewBox="0 0 1680 1680" fill="none" xmlns="http://www.w3.org/2000/svg">
<rect x="40" y="40" width="1600" height="1600" stroke="#FF5722" stroke-width="80"></rect>
<path d="M840 1640C1281.83 1640 1640 1281.83 1640 840C1640 398.172 1281.83 40 840 40" stroke="#FF5722" stroke-width="80"></path>
<path d="M1620 1640L436 40" stroke="#FF5722" stroke-width="80"></path>
</svg></svg></g></g></svg></g></svg>