<?xml version="1.0" standalone="no"?>
<!DOCTYPE svg PUBLIC "-//W3C//DTD SVG 20010904//EN"
 "http://www.w3.org/TR/2001/REC-SVG-20010904/DTD/svg10.dtd">
<svg version="1.0" xmlns="http://www.w3.org/2000/svg"
 width="700.000000pt" height="700.000000pt" viewBox="0 0 700.000000 700.000000"
 preserveAspectRatio="xMidYMid meet">
<metadata>
Created by potrace 1.14, written by Peter Selinger 2001-2017
</metadata>
<g transform="translate(0.000000,700.000000) scale(0.100000,-0.100000)"
fill="#000000" stroke="none">
<path d="M737 6990 c-337 -57 -599 -290 -704 -627 l-28 -88 0 -2775 0 -2775
28 -88 c95 -303 301 -509 604 -604 l88 -28 2775 0 2775 0 88 28 c311 97 528
320 609 627 l23 85 0 2765 0 2765 -28 88 c-95 304 -300 509 -604 604 l-88 28
-2745 1 c-1510 1 -2767 -2 -2793 -6z m2341 -3500 l420 -1260 -400 2 -401 3
-75 223 -74 222 -401 0 -402 0 -73 -225 -72 -225 -370 0 c-204 0 -370 4 -370
8 0 7 804 2414 835 2500 3 9 109 12 484 12 l479 0 420 -1260z m2015 1245 c413
-73 761 -397 875 -814 26 -95 26 -101 27 -426 0 -315 -1 -334 -24 -419 -98
-373 -362 -663 -710 -783 -174 -59 -228 -63 -898 -63 l-603 0 0 1260 0 1260
623 0 c515 0 637 -3 710 -15z"/>
<path d="M2131 3948 c-28 -88 -201 -711 -201 -723 0 -13 34 -15 221 -15 173 0
220 3 217 13 -3 6 -51 180 -108 385 -57 204 -107 372 -111 372 -4 0 -12 -15
-18 -32z"/>
<path d="M4540 3500 l0 -682 198 4 197 3 63 34 c75 41 125 94 161 170 l26 56
0 415 c0 406 0 416 -22 463 -33 71 -113 150 -186 183 -60 28 -68 29 -249 32
l-188 4 0 -682z"/>
</g>
</svg>
