<?xml version="1.0" standalone="no"?>
<!DOCTYPE svg PUBLIC "-//W3C//DTD SVG 20010904//EN"
 "http://www.w3.org/TR/2001/REC-SVG-20010904/DTD/svg10.dtd">
<svg version="1.0" xmlns="http://www.w3.org/2000/svg"
 width="780.000000pt" height="780.000000pt" viewBox="0 0 780.000000 780.000000"
 preserveAspectRatio="xMidYMid meet">
<metadata>
Created by potrace 1.11, written by Peter Selinger 2001-2013
</metadata>
<g transform="translate(0.000000,780.000000) scale(0.100000,-0.100000)"
fill="#000000" stroke="none">
<path d="M3545 6556 c-71 -34 -2274 -2238 -2304 -2306 -44 -96 -16 -217 66
-291 75 -67 11 -64 1173 -64 l1055 0 65 24 c137 50 231 144 281 281 l24 65 0
1055 c0 1162 3 1098 -64 1173 -76 85 -197 110 -296 63z"/>
<path d="M4280 3890 c-158 -27 -288 -136 -351 -295 l-24 -60 -3 -1049 c-3
-1156 -5 -1118 59 -1190 66 -76 135 -89 328 -60 388 57 778 206 1101 422 637
425 1063 1097 1174 1853 29 193 16 262 -60 328 -71 63 -35 61 -1158 60 -562
-1 -1041 -5 -1066 -9z"/>
</g>
</svg>
