<svg width="7811" height="1627" viewBox="0 0 7811 1627" fill="none" xmlns="http://www.w3.org/2000/svg">
<path d="M7595.31 1626.01C7545.86 1626.01 7503.28 1615.44 7467.56 1594.32C7432.06 1572.97 7404.62 1543.02 7385.23 1504.47C7366.07 1465.7 7356.48 1420.29 7356.48 1368.24C7356.48 1316.84 7366.07 1271.53 7385.23 1232.33C7404.62 1193.12 7431.63 1162.52 7466.26 1140.52C7501.11 1118.53 7541.83 1107.53 7588.44 1107.53C7616.76 1107.53 7644.2 1112.21 7670.77 1121.58C7697.35 1130.94 7721.2 1145.64 7742.32 1165.68C7763.45 1185.72 7780.11 1211.75 7792.31 1243.76C7804.51 1275.56 7810.6 1314.22 7810.6 1359.74V1394.37H7411.7V1321.19H7714.88C7714.88 1295.49 7709.65 1272.73 7699.2 1252.91C7688.74 1232.87 7674.04 1217.08 7655.09 1205.54C7636.36 1194 7614.36 1188.22 7589.1 1188.22C7561.65 1188.22 7537.7 1194.98 7517.22 1208.48C7496.97 1221.77 7481.29 1239.19 7470.18 1260.75C7459.29 1282.1 7453.84 1305.29 7453.84 1330.34V1387.51C7453.84 1421.06 7459.72 1449.59 7471.48 1473.11C7483.46 1496.63 7500.13 1514.6 7521.47 1527.02C7542.81 1539.21 7567.75 1545.31 7596.29 1545.31C7614.8 1545.31 7631.68 1542.7 7646.92 1537.47C7662.17 1532.03 7675.35 1523.97 7686.46 1513.29C7697.56 1502.62 7706.06 1489.45 7711.94 1473.76L7804.4 1490.43C7796.99 1517.65 7783.71 1541.5 7764.54 1561.97C7745.59 1582.23 7721.74 1598.02 7692.99 1609.35C7664.46 1620.45 7631.9 1626.01 7595.31 1626.01ZM7544.34 1047.09L7620.79 896.477H7723.7L7622.42 1047.09H7544.34Z" class="fill--primary"/>
<path d="M7043.91 1615.88V1114.06H7138.33V1193.78H7143.56C7152.7 1166.77 7168.82 1145.54 7191.91 1130.07C7215.21 1114.39 7241.57 1106.55 7270.97 1106.55C7277.07 1106.55 7284.26 1106.77 7292.53 1107.2C7301.03 1107.64 7307.67 1108.18 7312.46 1108.84V1202.27C7308.54 1201.18 7301.57 1199.99 7291.55 1198.68C7281.53 1197.15 7271.51 1196.39 7261.5 1196.39C7238.41 1196.39 7217.83 1201.29 7199.75 1211.09C7181.89 1220.68 7167.73 1234.07 7157.28 1251.28C7146.82 1268.27 7141.59 1287.65 7141.59 1309.43V1615.88H7043.91Z" class="fill--primary"/>
<path d="M6690.82 1615.88V1114.06H6785.24V1193.78H6790.47C6799.62 1166.77 6815.73 1145.54 6838.82 1130.07C6862.13 1114.39 6888.48 1106.55 6917.88 1106.55C6923.98 1106.55 6931.17 1106.77 6939.45 1107.2C6947.94 1107.64 6954.58 1108.18 6959.38 1108.84V1202.27C6955.46 1201.18 6948.49 1199.99 6938.47 1198.68C6928.45 1197.15 6918.43 1196.39 6908.41 1196.39C6885.32 1196.39 6864.74 1201.29 6846.66 1211.09C6828.8 1220.68 6814.65 1234.07 6804.19 1251.28C6793.74 1268.27 6788.51 1287.65 6788.51 1309.43V1615.88H6690.82Z" class="fill--primary"/>
<path d="M6313.07 1626.99C6281.27 1626.99 6252.52 1621.11 6226.82 1609.35C6201.12 1597.37 6180.76 1580.05 6165.73 1557.4C6150.92 1534.75 6143.51 1506.98 6143.51 1474.09C6143.51 1445.78 6148.96 1422.47 6159.85 1404.18C6170.74 1385.88 6185.44 1371.4 6203.95 1360.73C6222.47 1350.05 6243.16 1341.99 6266.03 1336.55C6288.9 1331.1 6312.2 1326.97 6335.94 1324.13C6366 1320.65 6390.39 1317.82 6409.12 1315.64C6427.85 1313.24 6441.47 1309.43 6449.96 1304.21C6458.45 1298.98 6462.7 1290.48 6462.7 1278.72V1276.44C6462.7 1247.9 6454.64 1225.8 6438.53 1210.11C6422.63 1194.43 6398.89 1186.59 6367.3 1186.59C6334.42 1186.59 6308.5 1193.89 6289.55 1208.48C6270.82 1222.86 6257.86 1238.86 6250.67 1256.51L6158.87 1235.6C6169.76 1205.11 6185.66 1180.49 6206.57 1161.76C6227.69 1142.81 6251.98 1129.09 6279.42 1120.6C6306.86 1111.89 6335.72 1107.53 6366 1107.53C6386.04 1107.53 6407.27 1109.93 6429.7 1114.72C6452.36 1119.29 6473.48 1127.78 6493.09 1140.2C6512.91 1152.61 6529.13 1170.37 6541.76 1193.45C6554.4 1216.32 6560.71 1246.05 6560.71 1282.64V1615.88H6465.32V1547.27H6461.4C6455.08 1559.91 6445.6 1572.32 6432.97 1584.52C6420.34 1596.71 6404.11 1606.84 6384.29 1614.9C6364.47 1622.96 6340.73 1626.99 6313.07 1626.99ZM6334.31 1548.58C6361.31 1548.58 6384.4 1543.24 6403.57 1532.57C6422.95 1521.9 6437.65 1507.96 6447.67 1490.75C6457.91 1473.33 6463.03 1454.71 6463.03 1434.89V1370.2C6459.54 1373.68 6452.79 1376.95 6442.77 1380C6432.97 1382.83 6421.76 1385.34 6409.12 1387.52C6396.49 1389.48 6384.18 1391.33 6372.2 1393.07C6360.23 1394.59 6350.21 1395.9 6342.15 1396.99C6323.2 1399.39 6305.88 1403.41 6290.2 1409.08C6274.74 1414.74 6262.32 1422.91 6252.96 1433.58C6243.81 1444.03 6239.24 1457.97 6239.24 1475.4C6239.24 1499.57 6248.17 1517.87 6266.03 1530.29C6283.89 1542.48 6306.65 1548.58 6334.31 1548.58Z" class="fill--primary"/>
<path d="M5727.53 1615.88H5510.93V946.789H5734.4C5799.95 946.789 5856.26 960.184 5903.3 986.974C5950.35 1013.55 5986.39 1051.77 6011.44 1101.65C6036.71 1151.31 6049.34 1210.88 6049.34 1280.35C6049.34 1350.05 6036.6 1409.95 6011.11 1460.04C5985.85 1510.14 5949.26 1548.69 5901.34 1575.7C5853.42 1602.49 5795.49 1615.88 5727.53 1615.88ZM5611.88 1527.67H5721.98C5772.95 1527.67 5815.31 1518.09 5849.07 1498.92C5882.83 1479.54 5908.09 1451.55 5924.86 1414.96C5941.64 1378.15 5950.02 1333.28 5950.02 1280.35C5950.02 1227.86 5941.64 1183.32 5924.86 1146.73C5908.31 1110.14 5883.59 1082.37 5850.7 1063.42C5817.81 1044.47 5776.98 1035 5728.19 1035H5611.88V1527.67Z" class="fill--primary"/>
<path d="M4871.57 1625.68C4831.06 1625.68 4794.9 1615.34 4763.1 1594.64C4731.52 1573.74 4706.69 1544 4688.61 1505.45C4670.75 1466.68 4661.82 1420.18 4661.82 1365.95C4661.82 1311.72 4670.86 1265.33 4688.94 1226.77C4707.24 1188.22 4732.28 1158.71 4764.08 1138.24C4795.88 1117.76 4831.93 1107.53 4872.22 1107.53C4903.37 1107.53 4928.42 1112.76 4947.36 1123.21C4966.53 1133.45 4981.34 1145.43 4991.8 1159.15C5002.47 1172.87 5010.74 1184.96 5016.63 1195.41H5022.51V946.789H5120.19V1615.88H5024.79V1537.8H5016.63C5010.74 1548.47 5002.25 1560.67 4991.14 1574.39C4980.25 1588.11 4965.22 1600.09 4946.06 1610.33C4926.89 1620.56 4902.06 1625.68 4871.57 1625.68ZM4893.13 1542.37C4921.23 1542.37 4944.97 1534.97 4964.35 1520.16C4983.96 1505.13 4998.77 1484.33 5008.78 1457.76C5019.02 1431.18 5024.14 1400.26 5024.14 1364.97C5024.14 1330.12 5019.13 1299.63 5009.11 1273.49C4999.09 1247.36 4984.39 1226.99 4965.01 1212.4C4945.62 1197.81 4921.66 1190.51 4893.13 1190.51C4863.73 1190.51 4839.22 1198.13 4819.62 1213.38C4800.02 1228.63 4785.21 1249.43 4775.19 1275.78C4765.39 1302.13 4760.49 1331.86 4760.49 1364.97C4760.49 1398.51 4765.5 1428.68 4775.52 1455.47C4785.54 1482.26 4800.35 1503.49 4819.95 1519.18C4839.77 1534.64 4864.16 1542.37 4893.13 1542.37Z" class="fill--primary"/>
<path d="M4454.45 1407.77V1114.06H4552.46V1615.88H4456.41V1528.98H4451.18C4439.64 1555.77 4421.13 1578.09 4395.64 1595.95C4370.38 1613.59 4338.91 1622.41 4301.23 1622.41C4268.99 1622.41 4240.46 1615.34 4215.63 1601.18C4191.02 1586.8 4171.63 1565.57 4157.48 1537.47C4143.54 1509.38 4136.57 1474.64 4136.57 1433.25V1114.06H4234.25V1421.49C4234.25 1455.69 4243.73 1482.91 4262.67 1503.17C4281.62 1523.42 4306.23 1533.55 4336.51 1533.55C4354.8 1533.55 4372.99 1528.98 4391.07 1519.83C4409.36 1510.68 4424.5 1496.85 4436.48 1478.34C4448.68 1459.82 4454.67 1436.3 4454.45 1407.77Z" class="fill--primary"/>
<path d="M3758.81 1626.99C3727.01 1626.99 3698.26 1621.11 3672.56 1609.35C3646.86 1597.37 3626.5 1580.05 3611.47 1557.4C3596.66 1534.75 3589.25 1506.98 3589.25 1474.09C3589.25 1445.78 3594.7 1422.47 3605.59 1404.18C3616.48 1385.88 3631.18 1371.4 3649.69 1360.73C3668.21 1350.05 3688.9 1341.99 3711.77 1336.55C3734.64 1331.1 3757.94 1326.97 3781.68 1324.13C3811.74 1320.65 3836.13 1317.82 3854.86 1315.64C3873.6 1313.24 3887.21 1309.43 3895.7 1304.21C3904.2 1298.98 3908.44 1290.48 3908.44 1278.72V1276.44C3908.44 1247.9 3900.39 1225.8 3884.27 1210.11C3868.37 1194.43 3844.63 1186.59 3813.05 1186.59C3780.16 1186.59 3754.24 1193.89 3735.29 1208.48C3716.56 1222.86 3703.6 1238.86 3696.41 1256.51L3604.61 1235.6C3615.5 1205.11 3631.4 1180.49 3652.31 1161.76C3673.43 1142.81 3697.72 1129.09 3725.16 1120.6C3752.61 1111.89 3781.47 1107.53 3811.74 1107.53C3831.78 1107.53 3853.01 1109.93 3875.45 1114.72C3898.1 1119.29 3919.23 1127.78 3938.83 1140.2C3958.65 1152.61 3974.87 1170.37 3987.51 1193.45C4000.14 1216.32 4006.46 1246.05 4006.46 1282.64V1615.88H3911.06V1547.27H3907.14C3900.82 1559.91 3891.35 1572.32 3878.71 1584.52C3866.08 1596.71 3849.86 1606.84 3830.04 1614.9C3810.22 1622.96 3786.47 1626.99 3758.81 1626.99ZM3780.05 1548.58C3807.06 1548.58 3830.14 1543.24 3849.31 1532.57C3868.7 1521.9 3883.4 1507.96 3893.42 1490.75C3903.65 1473.33 3908.77 1454.71 3908.77 1434.89V1370.2C3905.29 1373.68 3898.53 1376.95 3888.52 1380C3878.71 1382.83 3867.5 1385.34 3854.86 1387.52C3842.23 1389.48 3829.93 1391.33 3817.95 1393.07C3805.97 1394.59 3795.95 1395.9 3787.89 1396.99C3768.94 1399.39 3751.63 1403.41 3735.94 1409.08C3720.48 1414.74 3708.07 1422.91 3698.7 1433.58C3689.55 1444.03 3684.98 1457.97 3684.98 1475.4C3684.98 1499.57 3693.91 1517.87 3711.77 1530.29C3729.63 1542.48 3752.39 1548.58 3780.05 1548.58Z" class="fill--primary"/>
<path d="M3160.62 1317.93V1615.88H3062.93V1114.06H3156.7V1195.74H3162.91C3174.45 1169.17 3192.53 1147.82 3217.14 1131.71C3241.97 1115.59 3273.22 1107.53 3310.9 1107.53C3345.1 1107.53 3375.05 1114.72 3400.75 1129.09C3426.45 1143.25 3446.38 1164.38 3460.53 1192.47C3474.69 1220.57 3481.77 1255.31 3481.77 1296.69V1615.88H3384.08V1308.45C3384.08 1272.08 3374.61 1243.66 3355.66 1223.18C3336.71 1202.49 3310.68 1192.15 3277.58 1192.15C3254.93 1192.15 3234.78 1197.05 3217.14 1206.85C3199.71 1216.65 3185.88 1231.02 3175.65 1249.97C3165.63 1268.7 3160.62 1291.36 3160.62 1317.93Z" class="fill--primary"/>
<path d="M2709.85 1615.88V1114.06H2804.27V1193.78H2809.49C2818.64 1166.77 2834.76 1145.54 2857.84 1130.07C2881.15 1114.39 2907.5 1106.55 2936.91 1106.55C2943.01 1106.55 2950.19 1106.77 2958.47 1107.2C2966.96 1107.64 2973.61 1108.18 2978.4 1108.84V1202.27C2974.48 1201.18 2967.51 1199.99 2957.49 1198.68C2947.47 1197.15 2937.45 1196.39 2927.43 1196.39C2904.35 1196.39 2883.76 1201.29 2865.69 1211.09C2847.83 1220.68 2833.67 1234.07 2823.21 1251.28C2812.76 1268.27 2807.53 1287.65 2807.53 1309.43V1615.88H2709.85Z" class="fill--primary"/>
<path d="M2130.03 1615.88H2022.87L2263.65 946.789H2380.29L2621.07 1615.88H2513.91L2324.75 1068.32H2319.52L2130.03 1615.88ZM2148 1353.86H2495.61V1438.81H2148V1353.86Z" class="fill--primary"/>
<path d="M4563.57 706.009C4516.52 706.009 4475.47 695.228 4440.4 673.666C4405.34 652.103 4378.11 621.937 4358.73 583.168C4339.34 544.4 4329.65 499.097 4329.65 447.259C4329.65 395.204 4339.34 349.684 4358.73 310.697C4378.11 271.71 4405.34 241.436 4440.4 219.873C4475.47 198.311 4516.52 187.529 4563.57 187.529C4610.61 187.529 4651.67 198.311 4686.74 219.873C4721.8 241.436 4749.03 271.71 4768.41 310.697C4787.8 349.684 4797.49 395.204 4797.49 447.259C4797.49 499.097 4787.8 544.4 4768.41 583.168C4749.03 621.937 4721.8 652.103 4686.74 673.666C4651.67 695.228 4610.61 706.009 4563.57 706.009ZM4563.9 624.007C4594.39 624.007 4619.65 615.948 4639.69 599.83C4659.73 583.713 4674.54 562.259 4684.12 535.47C4693.92 508.68 4698.82 479.168 4698.82 446.933C4698.82 414.916 4693.92 385.512 4684.12 358.722C4674.54 331.715 4659.73 310.043 4639.69 293.708C4619.65 277.373 4594.39 269.205 4563.9 269.205C4533.19 269.205 4507.7 277.373 4487.45 293.708C4467.41 310.043 4452.49 331.715 4442.69 358.722C4433.1 385.512 4428.31 414.916 4428.31 446.933C4428.31 479.168 4433.1 508.68 4442.69 535.47C4452.49 562.259 4467.41 583.713 4487.45 599.83C4507.7 615.948 4533.19 624.007 4563.9 624.007Z" class="fill--text"/>
<path d="M4123.09 695.881V194.062H4220.78V695.881H4123.09ZM4172.42 116.634C4155.43 116.634 4140.84 110.971 4128.64 99.6449C4116.67 88.1013 4110.68 74.3797 4110.68 58.4801C4110.68 42.3627 4116.67 28.6411 4128.64 17.3153C4140.84 5.77178 4155.43 0 4172.42 0C4189.41 0 4203.9 5.77178 4215.87 17.3153C4228.07 28.6411 4234.17 42.3627 4234.17 58.4801C4234.17 74.3797 4228.07 88.1013 4215.87 99.6449C4203.9 110.971 4189.41 116.634 4172.42 116.634Z" class="fill--text"/>
<path d="M3735.05 705.681C3694.54 705.681 3658.38 695.336 3626.58 674.644C3595 653.735 3570.17 624.005 3552.09 585.454C3534.23 546.685 3525.3 500.184 3525.3 445.951C3525.3 391.718 3534.34 345.326 3552.42 306.775C3570.71 268.224 3595.76 238.711 3627.56 218.238C3659.36 197.764 3695.41 187.528 3735.7 187.528C3766.85 187.528 3791.89 192.755 3810.84 203.21C3830.01 213.446 3844.82 225.425 3855.27 239.147C3865.95 252.869 3874.22 264.957 3880.1 275.411H3885.98V26.7891H3983.67V695.88H3888.27V617.798H3880.1C3874.22 628.47 3865.73 640.667 3854.62 654.389C3843.73 668.11 3828.7 680.089 3809.54 690.326C3790.37 700.563 3765.54 705.681 3735.05 705.681ZM3756.61 622.371C3784.71 622.371 3808.45 614.966 3827.83 600.156C3847.43 585.127 3862.24 564.327 3872.26 537.755C3882.5 511.183 3887.62 480.255 3887.62 444.971C3887.62 410.122 3882.61 379.63 3872.59 353.494C3862.57 327.357 3847.87 306.993 3828.48 292.4C3809.1 277.807 3785.14 270.511 3756.61 270.511C3727.21 270.511 3702.7 278.134 3683.1 293.38C3663.5 308.626 3648.69 329.426 3638.67 355.781C3628.87 382.135 3623.97 411.865 3623.97 444.971C3623.97 478.513 3628.98 508.678 3639 535.468C3649.01 562.258 3663.83 583.494 3683.43 599.175C3703.25 614.639 3727.64 622.371 3756.61 622.371Z" class="fill--text"/>
<path d="M3317.93 487.77V194.062H3415.94V695.881H3319.89V608.977H3314.66C3303.12 635.767 3284.6 658.092 3259.12 675.952C3233.85 693.594 3202.38 702.415 3164.7 702.415C3132.47 702.415 3103.94 695.336 3079.11 681.179C3054.49 666.804 3035.11 645.568 3020.95 617.472C3007.01 589.375 3000.04 554.635 3000.04 513.253V194.062H3097.73V501.491C3097.73 535.687 3107.2 562.912 3126.15 583.168C3145.1 603.423 3169.71 613.551 3199.99 613.551C3218.28 613.551 3236.47 608.977 3254.55 599.83C3272.84 590.682 3287.98 576.851 3299.96 558.338C3312.15 539.825 3318.14 516.302 3317.93 487.77Z" class="fill--text"/>
<path d="M2891.98 194.063V272.472H2617.88V194.063H2891.98ZM2691.39 73.8359H2789.07V548.538C2789.07 567.487 2791.9 581.753 2797.57 591.336C2803.23 600.701 2810.53 607.127 2819.46 610.612C2828.6 613.879 2838.51 615.512 2849.19 615.512C2857.03 615.512 2863.89 614.968 2869.77 613.879C2875.65 612.79 2880.22 611.918 2883.49 611.265L2901.13 691.961C2895.47 694.139 2887.41 696.317 2876.96 698.495C2866.5 700.891 2853.43 702.198 2837.75 702.416C2812.05 702.851 2788.09 698.277 2765.88 688.694C2743.66 679.111 2725.69 664.3 2711.97 644.262C2698.25 624.224 2691.39 599.068 2691.39 568.793V73.8359Z" class="fill--text"/>
<path d="M2438.44 202.557C2434.95 171.629 2420.58 147.671 2395.31 130.682C2370.05 113.476 2338.25 104.873 2299.92 104.873C2272.47 104.873 2248.73 109.229 2228.69 117.941C2208.66 126.435 2193.08 138.197 2181.98 153.225C2171.09 168.036 2165.64 184.915 2165.64 203.864C2165.64 219.764 2169.34 233.485 2176.75 245.029C2184.37 256.573 2194.28 266.265 2206.48 274.106C2218.89 281.729 2232.18 288.154 2246.34 293.381C2260.49 298.391 2274.11 302.529 2287.17 305.796L2352.52 322.785C2373.86 328.012 2395.75 335.091 2418.18 344.02C2440.62 352.95 2461.42 364.712 2480.58 379.305C2499.75 393.897 2515.21 411.975 2526.98 433.537C2538.95 455.1 2544.94 480.91 2544.94 510.966C2544.94 548.864 2535.14 582.515 2515.54 611.918C2496.16 641.322 2467.95 664.518 2430.92 681.506C2394.12 698.495 2349.58 706.989 2297.3 706.989C2247.21 706.989 2203.87 699.039 2167.27 683.14C2130.68 667.24 2102.04 644.698 2081.35 615.512C2060.66 586.108 2049.22 551.26 2047.05 510.966H2148.33C2150.29 535.143 2158.13 555.289 2171.85 571.407C2185.79 587.306 2203.54 599.177 2225.1 607.018C2246.88 614.641 2270.73 618.452 2296.65 618.452C2325.18 618.452 2350.56 613.987 2372.77 605.057C2395.21 595.91 2412.85 583.277 2425.7 567.16C2438.55 550.824 2444.97 531.767 2444.97 509.986C2444.97 490.166 2439.31 473.94 2427.98 461.307C2416.88 448.675 2401.74 438.22 2382.57 429.944C2363.62 421.667 2342.17 414.371 2318.21 408.055L2239.15 386.492C2185.57 371.899 2143.1 350.446 2111.73 322.131C2080.59 293.817 2065.02 256.355 2065.02 209.745C2065.02 171.194 2075.47 137.543 2096.38 108.793C2117.29 80.0431 2145.6 57.7183 2181.32 41.8187C2217.04 25.7013 2257.34 17.6426 2302.2 17.6426C2347.51 17.6426 2387.47 25.5924 2422.1 41.492C2456.95 57.3917 2484.4 79.2809 2504.43 107.16C2524.47 134.821 2534.93 166.62 2535.8 202.557H2438.44Z" class="fill--text"/>
<path d="M1600 15.8809V1615.88H0V15.8809H1600ZM76.1905 1539.69H1523.81V92.0713H76.1905V1539.69Z" class="fill--primary"/>
<path d="M328 76.8334L1528 1600.64L1592 1554.93L392 31.1191L328 76.8334Z" class="fill--primary"/>
<path d="M1600 815.881C1600 374.053 1241.83 15.8809 800 15.8809V92.0713C1199.75 92.0713 1523.81 416.132 1523.81 815.881C1523.81 1215.63 1199.75 1539.69 800 1539.69V1615.88C1241.83 1615.88 1600 1257.71 1600 815.881Z" class="fill--primary"/>
<path d="M76.1905 1577.79C76.1905 1178.04 400.251 853.976 800 853.976L1561.9 853.976V777.785L800 777.785C358.172 777.785 0 1135.96 0 1577.79H76.1905Z" class="fill--primary"/>
</svg>
